<mxfile host="app.diagrams.net" modified="2023-10-27T19:10:41.321Z" agent="Mozilla/5.0 (Macintosh; Intel Mac OS X 10_15_7) AppleWebKit/537.36 (KHTML, like Gecko) Chrome/117.0.0.0 Safari/537.36" etag="2CRUPlW9cGuG6mwUEoaz" version="22.0.8" type="github">
  <diagram name="Страница — 1" id="3lgLiPDN8Mfx43QRTaey">
    <mxGraphModel dx="795" dy="405" grid="1" gridSize="10" guides="1" tooltips="1" connect="1" arrows="1" fold="1" page="1" pageScale="1" pageWidth="827" pageHeight="1169" math="0" shadow="0">
      <root>
        <mxCell id="0" />
        <mxCell id="1" parent="0" />
        <mxCell id="BLBwyYN7YItFMBzvaWY3-7" value="Мониторинг процесса установки" style="rounded=0;whiteSpace=wrap;html=1;verticalAlign=top;align=left;" vertex="1" parent="1">
          <mxGeometry x="40" y="90" width="780" height="430" as="geometry" />
        </mxCell>
        <mxCell id="BLBwyYN7YItFMBzvaWY3-2" value="&#xa;Сервер&#xa;&#xa;&#xa;" style="rounded=0;whiteSpace=wrap;html=1;verticalAlign=top;" vertex="1" parent="1">
          <mxGeometry x="400" y="220" width="120" height="60" as="geometry" />
        </mxCell>
        <mxCell id="BLBwyYN7YItFMBzvaWY3-3" value="&#xa;Модуль установки&#xa;&#xa;&#xa;" style="rounded=0;whiteSpace=wrap;html=1;verticalAlign=top;" vertex="1" parent="1">
          <mxGeometry x="620" y="220" width="130" height="60" as="geometry" />
        </mxCell>
        <mxCell id="BLBwyYN7YItFMBzvaWY3-4" value="&#xa;Модуль мониторинга&#xa;&#xa;&#xa;" style="rounded=0;whiteSpace=wrap;html=1;verticalAlign=top;" vertex="1" parent="1">
          <mxGeometry x="400" y="380" width="120" height="60" as="geometry" />
        </mxCell>
        <mxCell id="BLBwyYN7YItFMBzvaWY3-5" value="&#xa;Пользовательский интерфейс&lt;span class=&quot;Apple-converted-space&quot;&gt;&amp;nbsp;&lt;/span&gt;&#xa;&#xa;&#xa;" style="rounded=0;whiteSpace=wrap;html=1;verticalAlign=top;" vertex="1" parent="1">
          <mxGeometry x="170" y="220" width="120" height="60" as="geometry" />
        </mxCell>
        <mxCell id="BLBwyYN7YItFMBzvaWY3-6" value="&#xa;Модуль уведомлений&#xa;&#xa;&#xa;" style="rounded=0;whiteSpace=wrap;html=1;verticalAlign=top;" vertex="1" parent="1">
          <mxGeometry x="170" y="380" width="120" height="60" as="geometry" />
        </mxCell>
        <mxCell id="BLBwyYN7YItFMBzvaWY3-9" value="" style="whiteSpace=wrap;html=1;aspect=fixed;" vertex="1" parent="1">
          <mxGeometry x="394" y="400" width="20" height="20" as="geometry" />
        </mxCell>
        <mxCell id="BLBwyYN7YItFMBzvaWY3-10" value="" style="whiteSpace=wrap;html=1;aspect=fixed;" vertex="1" parent="1">
          <mxGeometry x="450" y="270" width="20" height="20" as="geometry" />
        </mxCell>
        <mxCell id="BLBwyYN7YItFMBzvaWY3-11" value="" style="whiteSpace=wrap;html=1;aspect=fixed;" vertex="1" parent="1">
          <mxGeometry x="450" y="370" width="20" height="20" as="geometry" />
        </mxCell>
        <mxCell id="BLBwyYN7YItFMBzvaWY3-12" value="" style="whiteSpace=wrap;html=1;aspect=fixed;" vertex="1" parent="1">
          <mxGeometry x="280" y="240" width="20" height="20" as="geometry" />
        </mxCell>
        <mxCell id="BLBwyYN7YItFMBzvaWY3-14" value="" style="whiteSpace=wrap;html=1;aspect=fixed;" vertex="1" parent="1">
          <mxGeometry x="220" y="270" width="20" height="20" as="geometry" />
        </mxCell>
        <mxCell id="BLBwyYN7YItFMBzvaWY3-15" value="" style="whiteSpace=wrap;html=1;aspect=fixed;" vertex="1" parent="1">
          <mxGeometry x="390" y="240" width="20" height="20" as="geometry" />
        </mxCell>
        <mxCell id="BLBwyYN7YItFMBzvaWY3-16" value="" style="whiteSpace=wrap;html=1;aspect=fixed;" vertex="1" parent="1">
          <mxGeometry x="510" y="240" width="20" height="20" as="geometry" />
        </mxCell>
        <mxCell id="BLBwyYN7YItFMBzvaWY3-17" value="" style="whiteSpace=wrap;html=1;aspect=fixed;" vertex="1" parent="1">
          <mxGeometry x="610" y="240" width="20" height="20" as="geometry" />
        </mxCell>
        <mxCell id="BLBwyYN7YItFMBzvaWY3-18" value="" style="whiteSpace=wrap;html=1;aspect=fixed;" vertex="1" parent="1">
          <mxGeometry x="510" y="400" width="20" height="20" as="geometry" />
        </mxCell>
        <mxCell id="BLBwyYN7YItFMBzvaWY3-21" value="" style="whiteSpace=wrap;html=1;aspect=fixed;" vertex="1" parent="1">
          <mxGeometry x="670" y="270" width="20" height="20" as="geometry" />
        </mxCell>
        <mxCell id="BLBwyYN7YItFMBzvaWY3-25" value="" style="whiteSpace=wrap;html=1;aspect=fixed;" vertex="1" parent="1">
          <mxGeometry x="280" y="400" width="20" height="20" as="geometry" />
        </mxCell>
        <mxCell id="BLBwyYN7YItFMBzvaWY3-26" value="" style="whiteSpace=wrap;html=1;aspect=fixed;" vertex="1" parent="1">
          <mxGeometry x="220" y="370" width="20" height="20" as="geometry" />
        </mxCell>
        <mxCell id="BLBwyYN7YItFMBzvaWY3-27" value="" style="endArrow=halfCircle;html=1;rounded=0;exitX=1;exitY=0.5;exitDx=0;exitDy=0;endFill=0;" edge="1" parent="1" source="BLBwyYN7YItFMBzvaWY3-12">
          <mxGeometry width="50" height="50" relative="1" as="geometry">
            <mxPoint x="390" y="320" as="sourcePoint" />
            <mxPoint x="330" y="250" as="targetPoint" />
          </mxGeometry>
        </mxCell>
        <mxCell id="BLBwyYN7YItFMBzvaWY3-28" value="" style="endArrow=circle;html=1;rounded=0;exitX=0;exitY=0.5;exitDx=0;exitDy=0;entryX=0.41;entryY=0.372;entryDx=0;entryDy=0;entryPerimeter=0;endFill=0;strokeWidth=1;" edge="1" parent="1" source="BLBwyYN7YItFMBzvaWY3-15" target="BLBwyYN7YItFMBzvaWY3-7">
          <mxGeometry width="50" height="50" relative="1" as="geometry">
            <mxPoint x="380" y="300" as="sourcePoint" />
            <mxPoint x="430" y="250" as="targetPoint" />
          </mxGeometry>
        </mxCell>
        <mxCell id="BLBwyYN7YItFMBzvaWY3-31" value="" style="endArrow=classic;html=1;rounded=0;dashed=1;" edge="1" parent="1">
          <mxGeometry width="50" height="50" relative="1" as="geometry">
            <mxPoint x="330" y="250" as="sourcePoint" />
            <mxPoint x="360" y="250" as="targetPoint" />
          </mxGeometry>
        </mxCell>
        <mxCell id="BLBwyYN7YItFMBzvaWY3-34" value="" style="endArrow=halfCircle;html=1;rounded=0;endFill=0;exitX=0.5;exitY=0;exitDx=0;exitDy=0;" edge="1" parent="1" source="BLBwyYN7YItFMBzvaWY3-11">
          <mxGeometry width="50" height="50" relative="1" as="geometry">
            <mxPoint x="370" y="390" as="sourcePoint" />
            <mxPoint x="460" y="350" as="targetPoint" />
          </mxGeometry>
        </mxCell>
        <mxCell id="BLBwyYN7YItFMBzvaWY3-36" value="" style="endArrow=circle;html=1;rounded=0;endFill=0;exitX=0.5;exitY=1;exitDx=0;exitDy=0;" edge="1" parent="1" source="BLBwyYN7YItFMBzvaWY3-10">
          <mxGeometry width="50" height="50" relative="1" as="geometry">
            <mxPoint x="370" y="390" as="sourcePoint" />
            <mxPoint x="460" y="320" as="targetPoint" />
          </mxGeometry>
        </mxCell>
        <mxCell id="BLBwyYN7YItFMBzvaWY3-37" value="" style="endArrow=classic;html=1;rounded=0;dashed=1;" edge="1" parent="1">
          <mxGeometry width="50" height="50" relative="1" as="geometry">
            <mxPoint x="460" y="350" as="sourcePoint" />
            <mxPoint x="460" y="320" as="targetPoint" />
          </mxGeometry>
        </mxCell>
        <mxCell id="BLBwyYN7YItFMBzvaWY3-39" value="" style="endArrow=halfCircle;html=1;rounded=0;endFill=0;exitX=1;exitY=0.5;exitDx=0;exitDy=0;" edge="1" parent="1" source="BLBwyYN7YItFMBzvaWY3-25">
          <mxGeometry width="50" height="50" relative="1" as="geometry">
            <mxPoint x="370" y="330" as="sourcePoint" />
            <mxPoint x="320" y="410" as="targetPoint" />
          </mxGeometry>
        </mxCell>
        <mxCell id="BLBwyYN7YItFMBzvaWY3-40" value="" style="endArrow=circle;html=1;rounded=0;endFill=0;exitX=0;exitY=0.5;exitDx=0;exitDy=0;" edge="1" parent="1" source="BLBwyYN7YItFMBzvaWY3-9">
          <mxGeometry width="50" height="50" relative="1" as="geometry">
            <mxPoint x="370" y="330" as="sourcePoint" />
            <mxPoint x="370" y="410" as="targetPoint" />
          </mxGeometry>
        </mxCell>
        <mxCell id="BLBwyYN7YItFMBzvaWY3-41" value="" style="endArrow=classic;html=1;rounded=0;dashed=1;" edge="1" parent="1">
          <mxGeometry width="50" height="50" relative="1" as="geometry">
            <mxPoint x="310" y="410" as="sourcePoint" />
            <mxPoint x="370" y="410" as="targetPoint" />
          </mxGeometry>
        </mxCell>
        <mxCell id="BLBwyYN7YItFMBzvaWY3-43" value="" style="endArrow=halfCircle;html=1;rounded=0;exitX=0.5;exitY=1;exitDx=0;exitDy=0;endFill=0;" edge="1" parent="1" source="BLBwyYN7YItFMBzvaWY3-14">
          <mxGeometry width="50" height="50" relative="1" as="geometry">
            <mxPoint x="370" y="330" as="sourcePoint" />
            <mxPoint x="230" y="310" as="targetPoint" />
          </mxGeometry>
        </mxCell>
        <mxCell id="BLBwyYN7YItFMBzvaWY3-44" value="" style="endArrow=circle;html=1;rounded=0;endFill=0;exitX=0.5;exitY=0;exitDx=0;exitDy=0;" edge="1" parent="1" source="BLBwyYN7YItFMBzvaWY3-26">
          <mxGeometry width="50" height="50" relative="1" as="geometry">
            <mxPoint x="370" y="330" as="sourcePoint" />
            <mxPoint x="230" y="340" as="targetPoint" />
          </mxGeometry>
        </mxCell>
        <mxCell id="BLBwyYN7YItFMBzvaWY3-45" value="" style="endArrow=none;html=1;rounded=0;" edge="1" parent="1">
          <mxGeometry width="50" height="50" relative="1" as="geometry">
            <mxPoint x="230" y="340" as="sourcePoint" />
            <mxPoint x="230" y="300" as="targetPoint" />
          </mxGeometry>
        </mxCell>
        <mxCell id="BLBwyYN7YItFMBzvaWY3-46" value="" style="endArrow=halfCircle;html=1;rounded=0;endFill=0;exitX=0;exitY=0.5;exitDx=0;exitDy=0;" edge="1" parent="1" source="BLBwyYN7YItFMBzvaWY3-17">
          <mxGeometry width="50" height="50" relative="1" as="geometry">
            <mxPoint x="370" y="330" as="sourcePoint" />
            <mxPoint x="590" y="250" as="targetPoint" />
          </mxGeometry>
        </mxCell>
        <mxCell id="BLBwyYN7YItFMBzvaWY3-47" value="" style="endArrow=circle;html=1;rounded=0;endFill=0;exitX=1;exitY=0.5;exitDx=0;exitDy=0;" edge="1" parent="1" source="BLBwyYN7YItFMBzvaWY3-16">
          <mxGeometry width="50" height="50" relative="1" as="geometry">
            <mxPoint x="370" y="330" as="sourcePoint" />
            <mxPoint x="560" y="250" as="targetPoint" />
          </mxGeometry>
        </mxCell>
        <mxCell id="BLBwyYN7YItFMBzvaWY3-48" value="" style="endArrow=none;html=1;rounded=0;endFill=0;" edge="1" parent="1">
          <mxGeometry width="50" height="50" relative="1" as="geometry">
            <mxPoint x="600" y="250" as="sourcePoint" />
            <mxPoint x="560" y="250" as="targetPoint" />
          </mxGeometry>
        </mxCell>
        <mxCell id="BLBwyYN7YItFMBzvaWY3-49" value="" style="endArrow=halfCircle;html=1;rounded=0;endFill=0;exitX=0.5;exitY=1;exitDx=0;exitDy=0;entryX=0.821;entryY=0.512;entryDx=0;entryDy=0;entryPerimeter=0;" edge="1" parent="1" source="BLBwyYN7YItFMBzvaWY3-21" target="BLBwyYN7YItFMBzvaWY3-7">
          <mxGeometry width="50" height="50" relative="1" as="geometry">
            <mxPoint x="370" y="330" as="sourcePoint" />
            <mxPoint x="660" y="310" as="targetPoint" />
          </mxGeometry>
        </mxCell>
        <mxCell id="BLBwyYN7YItFMBzvaWY3-50" value="" style="endArrow=circle;html=1;rounded=0;endFill=0;exitX=1;exitY=0.5;exitDx=0;exitDy=0;entryX=0.667;entryY=0.744;entryDx=0;entryDy=0;entryPerimeter=0;" edge="1" parent="1" source="BLBwyYN7YItFMBzvaWY3-18" target="BLBwyYN7YItFMBzvaWY3-7">
          <mxGeometry width="50" height="50" relative="1" as="geometry">
            <mxPoint x="370" y="330" as="sourcePoint" />
            <mxPoint x="540" y="410" as="targetPoint" />
          </mxGeometry>
        </mxCell>
        <mxCell id="BLBwyYN7YItFMBzvaWY3-51" value="" style="endArrow=classic;html=1;rounded=0;dashed=1;" edge="1" parent="1">
          <mxGeometry width="50" height="50" relative="1" as="geometry">
            <mxPoint x="680" y="310" as="sourcePoint" />
            <mxPoint x="560" y="410" as="targetPoint" />
            <Array as="points">
              <mxPoint x="680" y="410" />
            </Array>
          </mxGeometry>
        </mxCell>
      </root>
    </mxGraphModel>
  </diagram>
</mxfile>
